/* XPM */
static char * brick2_xpm[] = {
"64 64 225 2",
"  	c #645C6A",
". 	c #5C525C",
"+ 	c #4C434B",
"@ 	c #443C43",
"# 	c #3E3941",
"$ 	c #544A54",
"% 	c #655A64",
"& 	c #564D59",
"* 	c #3C343B",
"= 	c #5A4E5A",
"- 	c #5C4C53",
"; 	c #54454B",
"> 	c #4E4651",
", 	c #7C7B83",
"' 	c #A8A5A8",
") 	c #453A3C",
"! 	c #514751",
"~ 	c #635662",
"{ 	c #8A8696",
"] 	c #8C828C",
"^ 	c #968696",
"/ 	c #A79DB3",
"( 	c #8B7D8B",
"_ 	c #8B767B",
": 	c #988DA2",
"< 	c #948A9C",
"[ 	c #857A84",
"} 	c #483F49",
"| 	c #746C7B",
"1 	c #877E91",
"2 	c #6C6472",
"3 	c #746A6D",
"4 	c #927573",
"5 	c #463E48",
"6 	c #7C7383",
"7 	c #837483",
"8 	c #5C5254",
"9 	c #6B5C63",
"0 	c #59534C",
"a 	c #64545B",
"b 	c #73636C",
"c 	c #7B6463",
"d 	c #8B7374",
"e 	c #836B6C",
"f 	c #836965",
"g 	c #7A656B",
"h 	c #7B7274",
"i 	c #6C5A5C",
"j 	c #6B5D6A",
"k 	c #534A45",
"l 	c #634C4C",
"m 	c #938B93",
"n 	c #4C3E42",
"o 	c #645A5D",
"p 	c #6D6B6C",
"q 	c #6B5453",
"r 	c #645254",
"s 	c #544244",
"t 	c #5A474A",
"u 	c #443639",
"v 	c #443936",
"w 	c #4C3B3C",
"x 	c #4C3935",
"y 	c #4D4245",
"z 	c #6A565B",
"A 	c #725D63",
"B 	c #523E3C",
"C 	c #523B35",
"D 	c #6C6265",
"E 	c #7C625C",
"F 	c #826663",
"G 	c #937D83",
"H 	c #9B8285",
"I 	c #654F53",
"J 	c #5C4A4C",
"K 	c #3D3936",
"L 	c #735C5C",
"M 	c #5D4945",
"N 	c #55413D",
"O 	c #4A3633",
"P 	c #433434",
"Q 	c #544A4C",
"R 	c #7B6D7B",
"S 	c #83737C",
"T 	c #8B7B83",
"U 	c #A69399",
"V 	c #987A77",
"W 	c #705658",
"X 	c #513F41",
"Y 	c #4B423E",
"Z 	c #634E52",
"` 	c #694E4B",
" .	c #3C2D2B",
"..	c #756778",
"+.	c #736572",
"@.	c #7C696C",
"#.	c #5A4544",
"$.	c #5A433D",
"%.	c #746264",
"&.	c #3D3234",
"*.	c #7B6B74",
"=.	c #634B45",
"-.	c #6D5955",
";.	c #7C727C",
">.	c #412F2A",
",.	c #796673",
"'.	c #9B8C9C",
").	c #614642",
"!.	c #66636B",
"~.	c #8B6E6A",
"{.	c #71564D",
"].	c #7A5C54",
"^.	c #836D73",
"/.	c #49342E",
"(.	c #968688",
"_.	c #645A55",
":.	c #7A6966",
"<.	c #3B2A26",
"[.	c #362925",
"}.	c #44312D",
"|.	c #6B534C",
"1.	c #3D302D",
"2.	c #9A848C",
"3.	c #847275",
"4.	c #ABA5B6",
"5.	c #B7B2C8",
"6.	c #CFC3D8",
"7.	c #2E211D",
"8.	c #31231F",
"9.	c #2A1E1B",
"0.	c #412D27",
"a.	c #342622",
"b.	c #342A2B",
"c.	c #454143",
"d.	c #797B7A",
"e.	c #8B9399",
"f.	c #87817A",
"g.	c #827A76",
"h.	c #757373",
"i.	c #494548",
"j.	c #646264",
"k.	c #5C5A5B",
"l.	c #74736E",
"m.	c #6C716B",
"n.	c #756A74",
"o.	c #99949A",
"p.	c #4E4A4C",
"q.	c #75737B",
"r.	c #545253",
"s.	c #84838C",
"t.	c #686966",
"u.	c #888888",
"v.	c #9B95A6",
"w.	c #45403E",
"x.	c #5C5B62",
"y.	c #7B7587",
"z.	c #666272",
"A.	c #756F81",
"B.	c #4E4B53",
"C.	c #5D5562",
"D.	c #847B8C",
"E.	c #67625E",
"F.	c #6C626B",
"G.	c #A493A5",
"H.	c #5C5867",
"I.	c #3A2F31",
"J.	c #2C272B",
"K.	c #93838B",
"L.	c #65514D",
"M.	c #7A5E62",
"N.	c #8B6C65",
"O.	c #896F73",
"P.	c #695760",
"Q.	c #A68786",
"R.	c #795D5B",
"S.	c #61463F",
"T.	c #695047",
"U.	c #A28C93",
"V.	c #A48E99",
"W.	c #362724",
"X.	c #9AA6AC",
"Y.	c #2D2322",
"Z.	c #363339",
"`.	c #363134",
" +	c #342D33",
".+	c #6E6A76",
"++	c #8B7A7D",
"@+	c #58565A",
"#+	c #8B8393",
"$+	c #816D7A",
"%+	c #725E69",
"&+	c #75615E",
"*+	c #694D46",
"=+	c #715654",
"-+	c #82645D",
";+	c #735A54",
">+	c #583E38",
",+	c #847B7C",
"'+	c #261C19",
")+	c #7D807C",
"!+	c #938594",
"~+	c #93918E",
"{+	c #4F4C59",
"]+	c #3D3B3C",
"^+	c #9B8A94",
"/+	c #7B8286",
"(+	c #4F5053",
"_+	c #3F4143",
":+	c #B7A7B8",
"<+	c #A89AA8",
"[+	c #826668",
"}+	c #B29CA7",
"|+	c #B49394",
"1+	c #8C716D",
"2+	c #87655C",
"3+	c #B4AAAF",
"4+	c #937A7C",
"5+	c #897684",
"6+	c #A4837D",
"7+	c #C3A9B2",
"8+	c #92736D",
"9+	c #231916",
"0+	c #201715",
"a+	c #1D1513",
"b+	c #6D7176",
"  . + + @ # $   % & * = = @ + + - = ; > , ' ) = > ! ~ + $ { ] ^ / ( _ : < [ % } & @ = + } @ | { 1 + = 2 3 4 , 5 ! } @ @   6 | 6 ",
"7 $ ; $ & & - 8   9 ) - + + + @ ! ; ( % @ 0 ; a = ; a + ~ b c d e f 4 e g h i j > ~ . ; $ ! + k b $ $ l ) m = a - ; n ^ a j o p ",
"q r s % o t u n v n w n x ; y @ y z A o $ p 9 w B s z C D - i c E F G H e e s l I ; y J ; ; - t $ n s n u K ) ; n t w ; L a D D ",
"M N k 8 8 r s u @ + O u P P s n u ) z L - 8 u J l o l x Q J 8 3 R S T U V G n ; W L - q r z v w X s ; w u Y n Z t I P ) w 8 o ` ",
"M D b q o i J k ; u u n s  .u u O J s t y ) w ; M i a a l y ` ..+.@.e c c F x ; I J - . j w a w O ; n q X Q y w u #.$.w ) w X P ",
"D %.i %.i D q % w  .u w &.B u o #.= t &. .v a #.r *.=.) l -.#.=.J 6 7 ( ;.1 q r z t % a t ; W J s B s s s y s n w O >.t w n q ,.",
"_ b '.z 9 9 b % s n P P u u q i o ).J u u i a s ; q i = i o i #.J t | ..l J ; n ; b t w n t t x J - J ).X !.n u ; n ) u u u x c ",
"e ~.~.{.].F c - Q  .P P P ; 9 g ^.t P =.n o J q O B O J L c L r z ` O l k #.x u A q $.g B /.x r O s I M s Q l y B P &.s u &.; %.",
"[ p (.*._.L L :.<.[.<.u o J x P @.C B =.C [ s x >.>.>.}.x V @.|.E q x P N }.<.N c V @.|.C x O $./.x /.).O 3 n N l 1.r l }.J }.2.",
"3.4.5.6.] ' h ;. .7.8.8. .8.9.}.Y O 0.}.P ' ) a.9.<.7. .7.b.w w 8 N . O 7.8.7.a.% c.Q }.9.a.8.a.a.7.<.[.d.e.<.D t w 8 Y [.<.a.<.",
"f.g.(.:.T g.S 3 h.p Q Q i.c.3 3 8 k j.0 k.f._.) y c.l.m.g.m 3 { n.o.D , :.p.0 [ 3.m q.r.j.k.!.j.p Q s.!.k.t.p 0 %.T ] u.' v.r.w.",
". o j.x.$ 2 | $ . . > $ ~ y.z.| 2 y.~   A.2 B.$ $ C.> + D.E.| ;.@.[ p { F.| ! D.|   ! j $ $ @ ~ + + $ + = ~   @ + + } y o.s.C.> ",
"j 6 ^ [ q a C.~ & F.~ j j R _ F ; j a 9 _ ^.R j F.j ; o ;.n.3.- _ c a @.9 x s J n . = g j @ a g ) ; $ a J b ..+ a . ; @ y G.S ~ ",
"$ Z S R r c J e r + ; 9 - 8 2 R j $ ; = %.L n.z.; N s b.p 9 t w Q J z i r u ; ; ) J % J s a ` a u #.P - z 3 L - t = A ) &.+.=.t ",
"s J ~ z B $.l @.O q J r z w s M B x j #.H.| k w k t k I.w u = w u P z b i 1.z w ) J -.o o r s - O l b *.R %.l w w s n J.* K.3.c ",
"M M s B N q |.b $.z $.` =.$.r s - a r s J ; s ; J $ s x @ n t ; w y r L - =.s  .) J i A @.g t B u t . ; r - u P x w X . + e E -.",
"n.l w J =.L c b = M L w *.%.r s z B }.) w s B ) w - n u &.- ; ) j u s n x X  .s ) P r %.r 9 } x P x #.) u w u w w x b 9 % E E L ",
"j r 9 %.L.~.b j.M q M.B N.O.; k q s J J #.s - s y q ; P ) n u P ) s s P B n &.&.&.) % i 9 ^.*.l P.w - o s u u k r u L 9 o Q.@.%.",
"$.w @.[ T S { @.y.T q $.r ( L.#.B s M l x =.O n N L ; &.&.n b x #.}.O ) w u w <.P L.L e |.i @.%.x P P - i n  .r }.N e y Q U T v.",
"$.B 9 o C B O q C R.C =.O S./.T.x }.B }.}.O }.O }.O x  .w P $.M =.J i r >.<.>.}.<.i G e d U.V.@.w w /.>. .O }.>.<.O q F.h V.M N ",
"a.[.a.8.a.<.W.<.<.W.7.8.7. .a.8.9.a.8. .a.a.8.7.<.<.a.) X.c.Y. .w D N }.<.a. .8.<.  8 o N ;.D 8 <.a.9.a.7.8.}.9.a.<.-.U h.}.<.a.",
"* I.[.l.p @ @ ; } @ ) Z.@ * + `. + +# * * Z. +@ Z.Z.* ! C.  2 .+++:.@.s.p * I.* y p % - p.x.b.I.@ * `.`.} u + ) I.$ . @ `.b.Z.c.",
"'.D.$ @++ j ,.= 9 = } $ ! % +.a ~ + - = } + . & & - + + -.g c c U.!.3.5.$ j % & % #+y.$ % j = C.% ~ . % ~ $ C...C.j . % D.( D.'.",
"e G % r.- s ; x t r & $ ; a r L - = - ; y + r x + ; s @ ; a n.F.;.J u ) ; Z . 9 ,.c ^.9 j F g e ,.$ a & ~ $+9 %+b % - $ 2 @.%.@.",
"g &+A p.6 y w w n R g ^.9 r o %.r s s P w y n ; s Z ) u o R g i q w b.r.n J a Z ; B ; s M |.=.$.A M.s + s #.q N W %+Z s 9 z W $+",
"%.3 %.) S ` x B ..L.%.9 r t 8 a n x ) w u P u ; B  .n - J 7 x ; q u P t.y r #.s 8 #.; B q %.%.T j W - X ; o $ q i W w ` M - g A ",
"a J + c.-.3.<.u r e A @.c r - w = s u @ P P w ) P P u u n }.x &.B s a ;.^.a o - %.s B $ b F.q =.- J O - t ; s r . l d l J s l z ",
"#.-.i Q u q + y J k q %.J k u x n n w - y s x O &.P P w ; n u s ) &.b.D i - s J . Z s J 9 - L o R.I t B s ; L ` w a ..A B s s x ",
"y E i o   ) u x n &.i P w J  .s u B s y x P I.P y n J &.O w y s P n b.i.- - A B I s /.s - B +._ #.#.O B *+; q L j J J t x }.B t ",
"#.e . D P C &.x - -.c %.[.W.}.x i u n n n D s M i N }.>.C u  .}.<.x  .y Z z *+x B x B $.O O -.=.q i x l #.}.r C M M $.x }.B r C ",
"x S. .l.a.[.<.9.8.<. .<.a.a.a.N J C x a D n.8 j.N 7.a.>.<.<.<.<.<.W.<.s.1.>. ./.}.>. .>.C C E ].=+L |.-+T.].M <.l T.T.;+>.O /.>+",
"Y.a.k d.t.P P n I.b.w )  .&.b.;.g.#+n.4.o.K.m ,+[ q.B.b.I.$ u b.P ) ' { , k b.) 9.'+9. .1.+ $ Q c.> @ v K v c.9.'+y y 1.9.'+'+9.",
"$ @ + @ + ! $ @ @ @ + > + 5 ! + o $ #+o 3 m ] ] @.3 + @ *   5 @ ! ! + C.+ i.H.y @ 5 * +   [ ; !.F.Q r | | z.3 )+y 8 8 @ @ * + @ ",
"S +.7 2 . . j % j 9 $ 2 G H @.C.= Z +.!+e + | 9 [ - ; = ; *.9 j + } @ j F.-   } + ; w + ; S H T T [ 7 s s t n ) @ +.*.= $ ~ j ( ",
"E -.#.- ~ %+J g s a -.l L E @.o A 9 ; t % D.T b.b.#.) n - x D i . s s  .t v t ; l w u t L l %.b @.Z D w - }.P b.u z 9 z %+. A &+",
";+q s q M M s ; s u =.R.L q b B J w = ; s x x b.u ; u J - 8 J i ~ O u s O ) n ) =.x J z r %.r r c w o }.a w n J.&.- ; 9 I L l -+",
"A 9 #.J x t I B ; s 9 3 ..j J s ; B x O s u x b.&.x s y X a ~ i r ; n ; n u u n n a u a R i i b g P O w n B w J.a A z J s . o L ",
"j 9 O X - z l #.w J #.a r ` - w w n n x N s w  .I.) s v . +.a A i k i a a - &.t ; q s n ,.9 J ; Z n t s u u w b.$ c W X s ; ~ j ",
"9 z s w J #.J =.T.*+M ; s z x M - ; w - |.=.u J.) s n - ) 9 %.y b %.o =.r q W J 9 Q w >.n i k J &.J P u v ; *.- *.3.-.q t s w =.",
"w ; #.N k Q z l r 9 n w s s J J x s #.x . ,.r !.;.G q $.w y s x  .t J w s b j b r - 9 s w t P t >+P s u w ; c F.o S 3 #.M =.r J ",
"|.$.O J J L E -._ J O x $.C x ` O O O }.` E -.y r #.O B P  . .O x >.<.P O e S @.g R @.O a./.O P P O r =.<.O J 3 J B O #.=+|.%.s ",
"N |.-.$.L.].f M $.$.<.x N $.$.>.a.W.8.a. .$.  g.~+W.<.a.a.7.8.}.a.<.7.7.7.M @.% i s.o w 7.a.s =.}.W.B >.a.8.S 3.d.P <.=.*+T.a.<.",
"Q + x.) Q 3 !.!.p c.# Z.`.&.Z.J.c.{+`.]+]+@ r.r.Q x.i.i.p.) ) q.i.B.r.]+r.s.^+,+] 3 /+r.!.3 n.u.F.p Q K i.y $ 0 N c.]+p.) * (+_+",
"/ / / : 4.;.i b F.6.:+: #+:+j 7 1 R . % . C.& % % b ..= R ..= G.^ v.#+F.+.2 !+: n.2 R & % :+/ / < v.< ..j . 6 7 +.z.j '..+% +.4.",
"T ..R *.. #+[ o <+3.^+  A.b $ z A a = $ ~ $ = a f O.~ ,.9 c z a L n.P.%+a G *._ @+g b $+~ =.R ^.d 4 N.;+].A c =+^ R % z $ & a z ",
"B ,.[+s s F._ # ( T J #.q ; a - = = - - %+z a $.-.%.s B #.j 9 - 2 *.$.z A ^+8 g.+ M.~ r $.B T.E V.F d &+~.p 9 6 a J 9 s |.Q z - ",
"#.s W a ; O x b.@.^ - #.W ` B t s I s w =.B Q -.A q 9 x q % % j A N - #.o G H.] % I ; o l -.N.|.-+f ++c %.7 b q r J r J N #.l x ",
"Z - s q =.k n J.t k J l ` ` -+=.$.O N t ; I r z.a ,.` ; ; s k B s t X O #.6 =+b J t Z M c _ 3.3.H G.K.^+^+r = l a w a Z - q E l ",
"l a J t t l $ J.a J g c @.a N c T.L.#.x x Z N $.` ~ $.C x l l q t s s J n s J p a z #.C.A.y.y.#+1 _ !+| | r - s C J J t = L q 3 ",
"K.R.$.t =.d J 8 ) i M R T |.i e E -+=+a J ` l =.9 z %.l L.i %.L.a s q ; t u r 3 @.$+J a % b . J c 7 L j   Z O z s |.- t L.a L e ",
"-.N i J l B i o z =.C N t g { ,.e *.< M L.#.T '.b B = 2 D.].c c -.=.=.L $.J M r.z z q /.M ` s ` >+-.M r $.r d M #.+.M %.6 q 1 '.",
"` T.F O }.$.=.F.P O /.$.}.}.}.=.}+T >.=+f G i }.}./.}.s Q.|+4 e 1+q Q.].>.}.x g.B S.}./.B /.$././.}.O }. .#.~.c |.$.2+{.f L.C x ",
"7.c.) '+9.8.[.d.@ 7.9.) '+'+9.9.8 y a.8.8 8.7.Y.8. .7.<.Y ] v.v.3 n.F.h v a. .e.c.}.<.7.9.9.8.8.a.W.y a.9.9.<.<.7.b.7.]+) c.) '+",
"& A.@ @ * @ + 5 # @ 2   @ * @ $ [ E.8 u @ &.} u b.k.j.r.&+4.3+(.4+_ ' < S h.n ) &.I.n Z.`.I.&.3 o.;.8 + * @ @  +@ } Z.D.| & > 5 ",
"= 5+~ j 2 ..D %.j ^.d E *.% ;.; * i.~ ..2 C.& y.6 / : G.^ H b D 3.n.U / F.  6 ..G.  D.j C.% . & D.p = R 2 +.$ $ R   ~ . - & = $ ",
"$ z a c |.F -.T.q i d e ^ ,.9 s P &.b ,.... j a L.U.D.^+6+Q.H @.f U.7+}+^+6 *.,.$+j j . 7 j +.J &.b.; w ~ b g j z i z . ~ a ; - ",
"z z t - r c c E 8+c L |.i M r B &.&.- g M s k r D 9 *.7 6 2.U G K.K.}+< l -.j q . [+A y - M a R ) b.i r #.=.{.i D - J s ; w n x ",
"M R.X B r R.c F N.].R.-.;+-+|.z ; * r c J J x + 2 r #.g g ..^ ^ D.D.^ [ z t J x - z |.J W N T.L Q Q c q r l L.S #.#.s Z ; Z M ..",
"%.=+s #.~ A ^.G O.G 4 2.@.2.( t P J.j 9 s a Z J J ).>+- Z ..^ q.D.b - J - B $ 9 B - t #.t q R.4+8 k.}+,.% ( *.R - +.a Z X n r #.",
"~.E s ; J i ^.( K.T g S ;.T V.n &.b.G q = r J - X - . l r #.F.+.Z C.t ; w c J   ..- ; q #.e 4 U i.D T q s Z T i B.s q t w ; y B ",
"=+n.9 O }.% ;.| y.7 7 #+$ 7 *+s I.) V.e A Q X l ; - J ` l Z #.J w =.r r M J r s k M J l r T ;.2.$ n.R 9 s N l b X t *+w C A =+f ",
"Q.S h #.x B C B D.^ G.E O w x w P 8 &+^.J M /.|.N x S.$.{.x ).q F M T.C l l x s ).N k ` n.^.:.N.F.h n.-.L N.2+=+B /.C J ; A V 4+",
"o y N }.<.<.a.<.8./.C >.a.<.8.<. .l.#.=. .$.B /./.x x O >.x /.S.{.].;+c {.{.M $.}.x }./.}.*.8+;+,+v.f., o h.Q 8 O  .W./.l <.j.% ",
",+v.3 t.&.s.j.c.b.a.b.a.b.I.b.v e.f.D 1.9+<.W.9.'+9.9.9.0+a+a+W. . .W.}.}.7.8.9+'+a+'+9+a+7.1.b+%.d.h.o.( [ *.8 b.b.P r.;.D U ~+"};
