/* XPM */
static char * brick3_xpm[] = {
"64 64 131 2",
"  	c #7C6243",
". 	c #715639",
"+ 	c #80674A",
"@ 	c #83694A",
"# 	c #6C553A",
"$ 	c #806647",
"% 	c #795F41",
"& 	c #745A3C",
"* 	c #7B5D3B",
"= 	c #765836",
"- 	c #8A6D4B",
"; 	c #7D6549",
"> 	c #6B4D2C",
", 	c #5C4226",
"' 	c #694E31",
") 	c #644A2C",
"! 	c #846A4C",
"~ 	c #5F482D",
"{ 	c #675139",
"] 	c #5C452B",
"^ 	c #8A6F4F",
"/ 	c #866A49",
"( 	c #6C5234",
"_ 	c #6E583E",
": 	c #987751",
"< 	c #9E784E",
"[ 	c #8A6841",
"} 	c #997954",
"| 	c #916F49",
"1 	c #8D6B44",
"2 	c #815D35",
"3 	c #96734B",
"4 	c #A17E56",
"5 	c #A27D53",
"6 	c #815F3A",
"7 	c #8E6D47",
"8 	c #97754F",
"9 	c #8A653D",
"0 	c #7B5A35",
"a 	c #675035",
"b 	c #735533",
"c 	c #816341",
"d 	c #826543",
"e 	c #856541",
"f 	c #8E6F4C",
"g 	c #83623D",
"h 	c #886946",
"i 	c #714F2A",
"j 	c #987246",
"k 	c #967047",
"l 	c #79552E",
"m 	c #9A754C",
"n 	c #926D45",
"o 	c #A07A4E",
"p 	c #73522D",
"q 	c #704D27",
"r 	c #795732",
"s 	c #91714C",
"t 	c #9A7D5A",
"u 	c #9E815D",
"v 	c #A68965",
"w 	c #AD916C",
"x 	c #A8865E",
"y 	c #A98760",
"z 	c #A98B66",
"A 	c #957652",
"B 	c #B1946E",
"C 	c #A2835D",
"D 	c #A28561",
"E 	c #927552",
"F 	c #8E714E",
"G 	c #967956",
"H 	c #967B59",
"I 	c #AA8D69",
"J 	c #54391E",
"K 	c #866946",
"L 	c #896B48",
"M 	c #644D32",
"N 	c #7E613E",
"O 	c #907351",
"P 	c #856745",
"Q 	c #574026",
"R 	c #8E7251",
"S 	c #745D41",
"T 	c #644F38",
"U 	c #684725",
"V 	c #5A3E23",
"W 	c #634525",
"X 	c #674827",
"Y 	c #543F29",
"Z 	c #61462A",
"` 	c #4B341D",
" .	c #4A3017",
"..	c #51361D",
"+.	c #776045",
"@.	c #46311B",
"#.	c #56412A",
"$.	c #533C24",
"%.	c #4E381E",
"&.	c #5C4730",
"*.	c #4E3922",
"=.	c #59390F",
"-.	c #442F19",
";.	c #4B3621",
">.	c #6F5A40",
",.	c #876C4C",
"'.	c #856037",
").	c #6E502F",
"!.	c #A18058",
"~.	c #8D683F",
"{.	c #A88257",
"].	c #9F8361",
"^.	c #6A4A26",
"/.	c #BB9E78",
"(.	c #54300A",
"_.	c #B39671",
":.	c #3E2A15",
"<.	c #3B2612",
"[.	c #AD895F",
"}.	c #B99B73",
"|.	c #9E7C54",
"1.	c #A07F59",
"2.	c #774E1D",
"3.	c #C3A47C",
"4.	c #6D491D",
"5.	c #432C15",
"6.	c #503720",
"7.	c #472B0D",
"8.	c #7C582F",
"9.	c #8C6C48",
"0.	c #5A3D1E",
"  .   + @ # $ % & * = -   ; % %     & $   +   . > , ' ) ; ! ~ { ] @ @ # & ^ / @ ( @   # # / . ^   * = # . *   $ & = = @ $ ) & _ ",
"~ : < [ } } < | | 1 2 | 3 } 4 5 < 6 5 5 < 3 7 8 6 9 9 6 0 * ( ~ a b (   - c d d ( ^ b = e f * = g * * = e 0 g 9 [ g | < g h d ) ",
". } 5 | i 3 j 2 0 g k 2 0 l m < n < o 0 | l | 2 n 0 p q r r ) ~ ~ ) 0 * g s 8 7 e e h e 3 g g 0 9 2 g g 1 0 9 s t t u v w 0 * # ",
"& | x x y z z A - } h B B C D z C - D B - A A } h E } h p p > ~ _ > b g 0 l k g p 0 < 9 2 | c | h 9 [ [ F E h G H F G t I b * ) ",
"J [ t v I w v K K K - L v t G E u I E h v - E G K E - t 6 g > ~ M N N * D w G t h E t t w w E E E O E K G - H F E d E G I g P Q ",
"Q * R v I g I I N I d I A R D I u t w F K I - G N D I t 2 1 $ a M b b * E - t F h - E d u I K P E O - E F F E ^ - F K - B i > S ",
"T | f b v N v F K E E d I H I L t L v I I v I E - v D I | 3 P T ) / b g E I D I v - I F u u f E t e E F F - - D E - K s - | N _ ",
"_ | h h I w I d E F - - G F E u - t F O I I d N K $ G u 0 p ) ) ) > > 0 - - f u D G - F I K F - - - F - - - L F K - f t h g > . ",
"# M U F e d I K v E F E t u d F N I D g v - K v I I v P 2 i ) # M > b p E D t t u v D - D ^ L E u v - E - K K - G - K s u 0 b V ",
"~ c > K K I N v t d F v K - D - K f E K D d g v K K E D 0 r c .   N 0 0 h P F v t t v D - G K t t G F P F N d - F - - h - l h a ",
"{ * l ~ - c h z E F v G E E - A L t I - D g v v I F u F 1 0 b V V e g g w v d D v t E H e E D u P G - C t A E f f O E F G p g # ",
"a d 0 0 G ; > > W c b - E t O H t I d w t K I z I G G D < 3 0 ~ M p 3 / v d u t D u v D G D D v P G I u E E F G u F w O w l 0 M ",
"M X > W p g * b * U | W ) , > ] w % W b b 6 g * b ^ * * W g g ~ ~ 3 c * L 9 b Y M I O D u v I z - - E D t D t t . a A t I [ * M ",
".   Z c b d W * W * * * 0 > W b e 0 X > 9 b n Q 0 b b 0 6 * [ ' ) * > * > > b * * > U 0 * * * W 6 ` ) )  .b ..Q = V J , , W Z a ",
"~ Z , & ( $   # )   * * ( ) ] ' Z ~ ' M ) ( d   b ) * b * ( } # & * b b b b ( * c b b g * W X ( . * a / b * Z ' Q ) Q V ~ Z ~ # ",
"+.Y @.#.$.M @.%.@.] #.#.Q { { M &.&.] &.] #.*.@.*.#.*.] @.*.#.=.*.-.*.#.*.;.$.#.$.*.Y ;.#.-.&.$.M T ] $.] ] &.$.@.] *.$.%.&.&.Q ",
"  # ^ ( > ^ >       $ ) ( ; > S S   # % ^ $ * N * P K f L - > s s s c = K b - - L - F K $   ^ _ >.A f K K $ = * = =     ( @ ; ,.",
"$ b b p e b p b g f * * 1 } = a S L - b 7 0 e [ 9 | | m '.< 5 n '.< j 1 r 3 | 1 p 7 3 } h # A # & s s < 1 g | b g 6 [ [ ).b - f ",
"p s p 3 p r p g l s 6 1 o 9   M M * 8 g 9 } !.9 Z v C C I D s D z K C 7 2 n j n n 3 | i > $ $ V _ [ 5 g 5 2 ~.9 g 9 g 2 9 p [ * ",
"m n 9 k 2 < 2 2 {.k < 5 [ b   a S b [ n h D   E I ^ } G I D v t - - E E D w ].u D G C g 1 * > ~ &.e 9 - A K F 3 k '.1 3 ~.n k 2 ",
"G t D - v - - v F G D } ^.g ( a { ( ) 0 h * !.E v G v D D t t u G K K E u u D w D G * D | h   V a W * # d P D t C D I v u t D D ",
"A G K D - - E E d D F 3 7 c $ M ) M Z b f * v I G v E v I I v d I E N G E E t - F d A K p 7 $ a % > * K K G E E t D I D u t v d ",
"v D D t v t c E f P F r * = . ) ) . b b ' s d d t v I w w D u d I g I I v D t P E I d F * h K # ( * p r A G D D t u u u u I u E ",
"d G D u I u t f H O F 0 9 = ( S _ ( d ) F F w D w P D d I I u I e u K G E D t E f P D G V V U M $ h 0 i d v D v D u ^ F u u u d ",
"u E G K F d D t E E / 1 g b > +.& & = = /.G I ].I E u I d v - e - F e - G v I K A D v / C i ( ~ a c 6 6 I D v I E f D d K G t u ",
"A E A - * u E G u H - b 0 ( ( ) ; $ d ( # K d v F d v D u D D v F K E G t d t I D N D E . b b M # $ * 1 D v u D t C t v - - D G ",
"- G L e t N F . D D w A > e ( S , ( W h Y K t d E d v u R e F ^ I F d H I I v t D - d f + Z * T M * e 6 v v D t D K - H F - K t ",
"Z > Z ) > M (.=   Z Q > 0 * b S ;   ) d Z * ) ( ( F K - _.1 9 F I P K f w u D - P - g F } * N ~ & N h [ , V ' ( > * V . ~ M E a ",
"* > X b r > ) 0 > r > > ) g ) S ; $ / = > 6 X g > p > , > ( 7 U $.- - K d f G t v I u D ! 0 b & & N * = * b * * * * b b g 6 * g ",
"U b b > b b * b > s b > ).b b ~   ' * b > > c b h * r p = ).> p W > W * b * > b > * * p 0 W = a M - ( b * b = * b . = b * * W ) ",
"%.` . .   # * P > W V ( ( & $._ S   ; . a a V * Q Z , ~ Z ' ) . * ) > > * W h b * U ) W ) & M $.~ T . S & & & & & & &     Z ; Z ",
"M _ { &.#.T Y $.&.{ ] $.Y #.M +.M M T M #.#.$.Q ] $.;.*.#.$.#.@.#.:.<.:.*.<.$.:.*.$.@.] -.Q *.+.+.&.] M # M $.Y &.$.&.*.] %.M *.",
"M M ,.@ @ % @   $ @ Z ' Z ) ; @   # . . +.@ > ' M , > + M ~ a S M / ( b ^   - $ e = K E Z a > ,.> M a S ; # M a ; S +.M # , ) ~ ",
") ' * / K F F b * N b s : 0 ) K > b = =   ^ K A ( > ( ) b 0 f & # 8 g >     ' $.b , ) > > . > a Z ( ' ! ; > >   & . & # #   ; # ",
"~ & ).E s s p p b > l 2 p 0 Z : 8 > 0 s N e 6 > p [ [ g p 3 * # # b = * * * b * ) ) ) - > ( ( > > ) ( ,.b ^ & . = b ;   % & & # ",
"# > K s [ i p p 0 > n } F , p < l i p 0 e 0 i X [ 0 ( | e b (   Q ~ ( b N K * 0 * g b * ).).$ N . = > ) = ( $ =   d >   = + ; a ",
"a Z p p [.< 0 g g v * t t ~.K C I * f z H _.z } p g 2 0 0 f - S (   = = b f [ h 0 }.z b p b b b b h f ).b * h = d c * K . V # T ",
"_ ( 0 $.} h z z * } z H b < H - u d I v K D w [ 2 g 0 6 * = ' V # # .   = 7 3 - u u = 0 g > p g b [ f f 0 @.0 1 f * * > , * # +.",
"M * 9 b s } * } 7 |.t w 0 f u D % u O E D v y 1 8 < g 0 g d F Q Q @   b * = d | ) ~ > 0 b p e 0 b * > < [ > f 0 s h h * ' ,.S # ",
") 0 U > } 1 9 f g 0 x } C & v } s z G A d L g 6 [ g s 0 0 > b Q   ( / K h * ) 0 * q p ~.l 0 0 h X [ 0   N w h 5 0 7 e b $ & # a ",
"M 6 * A h 0 | s * } P b K w v x D E u I F b 3 h 1.- h 2 0 ( ( Q ~ ( ' f = h 0 p > 0 9 | R A 4 !.* U * U > b p z b c g * = e = a ",
"Q 0 G ' X 1 s 8 s f [ K I D v D t G $   E * e } f 7 6 [ * b ( ~ # Z b * f 0 p > b 0 b b I . b Z U 0 ' > I K D } i 9 2.U 3.r [ Q ",
"V 3 u r g g [ 8 } [ 2 s K d t A K D g h E   d y g e A 0 0 b b M # Z p ( 9 B W ).= > b Z V , e * < > 0 4.E d D L G w E g u 1 3 & ",
"a p I F !.7 A A |.b ~ t E G D = } ~ C f * ~ ' t > ` . b 2 p ( ) M ) U J Q V > Z & Q / = > $ d b { C i G v c - G F t z L t 7 9 V ",
"# k w K z g D ^ I K - E G F v ) p g b * Z W = > * > V > g [ * T + & f 9 V > b ( ; ( = = ( ) ( p }.G G u I I G D z E v F K > 3 b ",
". g J Z % ' ( V % . . & # . . Q e * Z ( & f e p > # ' ) b b > ~ a , 9 ` Z > ( . * .   * b   M g ) b b > K = U g ) > ' $ / ' m J ",
"Q e * b h 1 > 6 > [ 9 9 [ 9 0 0 b M ~ ~ & . . * ' # = ( ' = = M M $ ( b > - . ) & # ~ @   ) a $.= Z Z h Z * b * [ b 9 b * 6 {.a ",
":.Y @.%.*.*.-.%.5.-.<.6.*.@.%.$.@.$._ M T %.~ &.@.&.*.*.*.*.;.# @.*.$.$.:.*.M ~ # ] ~ ~ $.~ M &.] ;.;.*.*.*.-.@.@.*.$.$.7.<.5.= ",
"Z $ $   $ L ( > - b s h s e - M ) . b = + $   (   * b ( N   P * * > ( F f e d ) ( P * ( E K c Q ) s e 1 c h s h e p * f ).s ).P ",
"k 1 3 3 3 [ s 0 5 2 m o j < | # / d k 1 < 3 s 8 | } 9 e f h * g e : p 3 5 0 g 0 < 3 g 1 2 1 9 M , n 2 n j ~.l '.9 < ~.9 m n n l ",
"0 0 ~.p m l < p | B B w z n g # ) s r ~.m k m k k p l 0 2 1 1 3 | n 8 g } K A u f A C s } | 6 ' , b v G v u u I I u v H _.D z C ",
"t C t D _.C u G D d d z D 1 e S M * g D B w C C 7 {.{.< 9 8.8.l B d w D I I t D v u - u G 1 g ) ( g R v D G u G u E t D I w F C ",
"t E G F u K F I c u t d G i e V Q p | C I R I I z u L F D v E v C I N t I v K t E G F v u | [ ) ( 0   u t u E d E E t I g F E E ",
"- - K - G E L K - D - I c 2 * S S 1 9 D I K I I I d P N O v H - H w I c I P I I e E t u G | * ~ # 1 & u G E I E G F K E E f E d ",
"I t E F K G E K E K G O g k c M S } | R I v D v I I d I I C G I d d E E v d K z v v t v t 7 1 V & i R u u t D t E E I v f F - O ",
"A E F F F F I - O v t C [ n d # S * l D I v K u I z I K - G P - K I E f I d K - G I u u u | 0 V # h   t G u u t G G K F t d K F ",
"E F P F F L D u d O I h 9 g > { a . k t g t } H v - I v d I L E K K - K F d e v E I E - C | e . ; > 1 H I u E E E - E t G F K - ",
"E G F d E E - u G w A t 0 k d V Q P | t - d I E K I t G L d I K - - G - A E - G G t D v D p 0 Q > d ^.R O A - G F t E G G E F K ",
"G - K F N u I v - v - G * 3 P { S c 1 d v I D C I I d h F c d d G - E - u w - I u E - I u 2 * # . b 2 ( - G P I v d F t G A E G ",
"G G - - v t O - I K F K } < * # # L q R D D I t e t I G E = ( ' M ) ) ~ - D E e w - E f / g e S ( b 0 * M Q D M z K G - E F E E ",
") Z Z W W X Z > > , > ) P 6 > Q Q g g * Z = b b b ..J b b > V U > W 9 p b > , b ] `  .> ' h P a a = g b > > p | *   ' * s g d b ",
"g g 3 i [ 1 [ 1 1 g 3 0 0 l * a Q [ [ 9 [ 2 7 3 i i l r p 9.> W b ) b * * ) ) g 0.) , b e > K Q # * = > b > c b g [ V p 6 p g 2 ",
"( ` M Q V $.M Z ] ' Z J ] ] ' { M V J M M ~ ~ V Q  . .$.` a V V Q , ' ( ) % % Q ) & . * , ( ; { _ . . a . V > M ' Q . V * > g b ",
"#.M M #.$.*.M &.] $.] M &.] #.S S &.] &.M ~ *.$.Q $.$.#.$.$.$.*.*.*.%.*.#.&.M M Y *.%.%.&.&.&.S +.&.] ] $.Q ] &.] $.#.~ Y $.*.] "};
