/* XPM */
static char * bw_xpm[] = {
"64 64 240 2",
"  	c #7A8786",
". 	c #767C82",
"+ 	c #637D63",
"@ 	c #3C543A",
"# 	c #83938C",
"$ 	c #759B7B",
"% 	c #88A988",
"& 	c #3E5541",
"* 	c #5D7562",
"= 	c #626B67",
"- 	c #4D6B4B",
"; 	c #354B32",
"> 	c #344531",
", 	c #3B4D39",
"' 	c #3A4D33",
") 	c #445C42",
"! 	c #536552",
"~ 	c #33442C",
"{ 	c #6C7B74",
"] 	c #677767",
"^ 	c #99B4A8",
"/ 	c #868D92",
"( 	c #9AA8A8",
"_ 	c #4C5B52",
": 	c #A3A9AA",
"< 	c #899A96",
"[ 	c #737C78",
"} 	c #456342",
"| 	c #89A796",
"1 	c #A9B7B8",
"2 	c #B6D3C8",
"3 	c #869789",
"4 	c #3E593B",
"5 	c #546C5B",
"6 	c #7A928D",
"7 	c #697975",
"8 	c #959CA3",
"9 	c #6C8B6B",
"0 	c #93A39C",
"a 	c #4A5D43",
"b 	c #5C7B5B",
"c 	c #839C79",
"d 	c #74837B",
"e 	c #ACC9C2",
"f 	c #5B745B",
"g 	c #6A8464",
"h 	c #5B7B54",
"i 	c #557A53",
"j 	c #4C6A44",
"k 	c #648363",
"l 	c #4E724B",
"m 	c #78A57A",
"n 	c #98C598",
"o 	c #8AB696",
"p 	c #82A483",
"q 	c #83AB83",
"r 	c #6C8B72",
"s 	c #547353",
"t 	c #536C53",
"u 	c #6E9373",
"v 	c #5B6D5A",
"w 	c #B5C5BB",
"x 	c #838B87",
"y 	c #435B3C",
"z 	c #5B7354",
"A 	c #74947B",
"B 	c #7CA688",
"C 	c #526B45",
"D 	c #749473",
"E 	c #7B9B7C",
"F 	c #5E7B62",
"G 	c #51663F",
"H 	c #5A6C4C",
"I 	c #63835C",
"J 	c #62755B",
"K 	c #A4B7AB",
"L 	c #5A6D53",
"M 	c #4B6344",
"N 	c #547A4D",
"O 	c #3C5335",
"P 	c #53734C",
"Q 	c #5C8254",
"R 	c #56745A",
"S 	c #8B9493",
"T 	c #748C7C",
"U 	c #2C3B24",
"V 	c #35492E",
"W 	c #435542",
"X 	c #414E3A",
"Y 	c #7A956C",
"Z 	c #7A9574",
"` 	c #83A37C",
" .	c #85A778",
"..	c #94A4A4",
"+.	c #3B5535",
"@.	c #627554",
"#.	c #4C6452",
"$.	c #425435",
"%.	c #45613D",
"&.	c #5A7B4B",
"*.	c #B3BBB9",
"=.	c #323E2A",
"-.	c #2E412B",
";.	c #5E8362",
">.	c #435A36",
",.	c #5A734D",
"'.	c #778678",
").	c #648A62",
"!.	c #6B835D",
"~.	c #42553B",
"{.	c #59804F",
"].	c #26311E",
"^.	c #3A4B2D",
"/.	c #648456",
"(.	c #637C5C",
"_.	c #95A799",
":.	c #2B3622",
"<.	c #263321",
"[.	c #536B4C",
"}.	c #73936C",
"|.	c #7CA27B",
"1.	c #8AB588",
"2.	c #39452C",
"3.	c #3A4632",
"4.	c #232C1B",
"5.	c #6C9365",
"6.	c #313D25",
"7.	c #658B6A",
"8.	c #7B9C83",
"9.	c #1E291A",
"0.	c #46634A",
"a.	c #455C4A",
"b.	c #414D34",
"c.	c #5C8857",
"d.	c #738C63",
"e.	c #171E13",
"f.	c #4A5C3D",
"g.	c #4B633D",
"h.	c #7B9B73",
"i.	c #1D2619",
"j.	c #648A5C",
"k.	c #537246",
"l.	c #4B673D",
"m.	c #4C644B",
"n.	c #2D3D29",
"o.	c #849491",
"p.	c #728C6C",
"q.	c #2B391F",
"r.	c #3D512E",
"s.	c #6A7D5C",
"t.	c #789669",
"u.	c #C4D2D2",
"v.	c #334126",
"w.	c #1B2315",
"x.	c #596849",
"y.	c #6B8A5D",
"z.	c #526444",
"A.	c #353D2B",
"B.	c #52654B",
"C.	c #94ABA3",
"D.	c #485546",
"E.	c #616E56",
"F.	c #6A7957",
"G.	c #49553C",
"H.	c #29341E",
"I.	c #202818",
"J.	c #799786",
"K.	c #B4BBC4",
"L.	c #5C6B63",
"M.	c #9CAAB2",
"N.	c #8E9AA3",
"O.	c #374A39",
"P.	c #4B5D4B",
"Q.	c #58645B",
"R.	c #4F6B5A",
"S.	c #3E5A43",
"T.	c #7C8C83",
"U.	c #A9B8C2",
"V.	c #6B8576",
"W.	c #65836A",
"X.	c #83AB8B",
"Y.	c #6A9869",
"Z.	c #4E6B51",
"`.	c #5D825C",
" +	c #95B999",
".+	c #A2CC99",
"++	c #A7D4AA",
"@+	c #6C936B",
"#+	c #7CA383",
"$+	c #5E8963",
"%+	c #739B6C",
"&+	c #567959",
"*+	c #738D73",
"=+	c #637B55",
"-+	c #6A846B",
";+	c #92AE8B",
">+	c #7BA274",
",+	c #242E21",
"'+	c #738667",
")+	c #515D46",
"!+	c #323E31",
"~+	c #3E4F42",
"{+	c #B3E6B3",
"]+	c #AAC4BA",
"^+	c #647C6B",
"/+	c #71875E",
"(+	c #6B8B64",
"_+	c #7B957B",
":+	c #93B78B",
"<+	c #C7DAE5",
"[+	c #93958E",
"}+	c #B7C7C9",
"|+	c #EBF8FD",
"1+	c #9AC7A7",
"2+	c #BBD5D6",
"3+	c #C5E1DD",
"4+	c #959B99",
"5+	c #555D56",
"6+	c #B8CAD3",
"7+	c #8DB6A4",
"8+	c #2A3727",
"9+	c #61754D",
"0+	c #759A74",
"a+	c #466949",
"b+	c #83AA7B",
"c+	c #A5AEB6",
"d+	c #88AE77",
"e+	c #73786A",
"f+	c #95CEAE",
"g+	c #597566",
"h+	c #6C9778",
"i+	c #2F4131",
"j+	c #2F4026",
"k+	c #B9EACF",
"l+	c #90C291",
"m+	c #D0D7E1",
"n+	c #445433",
"o+	c #444B44",
"p+	c #77A671",
"q+	c #9DB5B3",
"  . + @ # $ % & * = - ; > , ' ) ! ) @ ~ { ] ^ / ( { _ : < [ } ' ' @ @ | 1 2 3 ; } 4 # ' ; 5 6     ' } 7   8 6 9 = 0 } ; 7 { { # ",
"a b 4 c d e 1 f g h b - } i j @ k l i - l m n o n p 9 q p r s } t u p v 1 w x l ; } l @ } y + z A y ~ k A B C @ ) i h p D E F g ",
"u G H I J K d g L t , M H a ' y N y O j } j P y Q ) i O R g b i y b g p S ] T O y j U j N V O j N j j H W y ; M N } f X Y a Z + ",
"y ` a I  ...L I + @ +.@.#.R ; ~ $.4 ~ j y ' %.U } } y &.' P %.j Q y ` q = *.=.-.V +.} y O ;.O j O V y - #.+.4 s 4 +.m k + k y >.",
"&.,.I M J '.).!.~.M y b f f y @., ) ~ %.O O {.~ ; y O ].; ^./.N ~ ~ (.Z _.3 :.+.<.} V I b s y 4 } +.y ~ $.y H +.V y %.P k L [.4 ",
"%.}.).|.1.] ` 9 ! } 2.~ +.' H (.R 3.O ' O M ' +.} z ' 4.y 5.C 3.6.%.b 7.8.: 9.~ ' ^.} ) z h ) y +.} ~ j <.4 } %.' :.O (.0.b k j ",
"P $ 7.P P a.4.6.&.} t b.~.&.J 9 ~.z , } } - +.O ~ - [.%.O c.' 7.R ~ y $ d.& e.].+.~ +.[.t O ~ C f.- j P +.+.+.y g.y +.a V - j O ",
"$.} %.5.h._ i.' P 4 s }.[.h.z h.t t ~ +.+.j ^.^.$.' y y j.k.' ; ~ M %.l.C t 9.; :.4 O ' m.f.z z t y y O O U k.n.~ $.O R a ~ >.O ",
"/.4 !.(.o.1 i.].>.g g X y n p.1.|.b ; $.2.q.' ~ y +.^.^.y O ^.j j ' $.g.&.^ e.V O z ~ L z @.(.(.h k.r.^.~ ^.^.V >.O O ^.H &.>.; ",
"s.f.t.v *.u., v.w.!.x.,.x.U c t.y.,.z.>.V ^.~ ~ U U 2.~ ~ 2.v.A.r.v.6.>.B.C.o D.E.g z.F.F.(.y.H ~ $.4.G.$.^.H.2.^.6.H.:.I.r.V v.",
". = J.K.3 K S ; 5 ) D.L.#._ M.8 S N.O._ P.Q.) O.#.#.7 R., & O.#., S.D.> 0.v T.  / o.P._ v ] T.6 U.U.[ d V.= _ t ' > - @   W #.  ",
"W.X.Y.s X.| a [.Z.W 0.a.m.- 9 e s W Y.).`.s i s ) - m.s 8.k s `.A p.|  +p - % g .+c % ` 8.p ++* B.! r @+o  +8.i - 0.i u #+`.`.$+",
"y A u i A F M b i s s s s s %+> :.3.- h y y b &+) m m.9 A g p.(.Z L E A :.s p f *+D z A #+D D y 4.E a :.B.g f h m.s b q s h i a ",
"M ) [.i R m.) y s [.=+a } b b y w.' [.- C I a s m.M ) [.` t Z -+f ;+T P.9 - ~ 7.* k E p.+ r #+P i.U ' } ;.#++ W } 0.~.(.m.s i @ ",
"@ a y ~ `.U M P ,.!.@.z.t G.W.>+<.; y ~.s y y [.~.~ @ ' y ) Z.F m.9 + M /.~.O M y [.-+P., B Z j ,+n.' ~.M M b P.m.' f f #.h O ~.",
"~.~.m., > m.' [.).A p.p.H @.g   f d.!.d.~.a m.m.~.) ~.@ M [.) } y z g.- y t M P } z.+ B.- H h.g 4.t m.f ~ y M a.i y b.~ ) - h W.",
"' M } f.y O [.) ) E c ` Z c 1.< *.x '+z.)+!+~+~.G.3.~.~., @ y } m.y +.y i h m.H 9 m.a , a m.t.` :.7.m.(.m.y M [.b t ' ~.[.) @ ' ",
",.H X z.) ) ~.@ s.G.X.h.I .+{+] ]+M.D.g X.y [.I u W.^+$ 9 } ~.M y M P , @ @.R m.p.-+- ' ' /+Y ` T.(.H z.@.G.(+b P.' [.P i [.~.y ",
"s.J h.L 5 M *+H J _+/+h.:+q q K.<+[+! M M M >.y [.9 ! k t y P f.[., C O ^.A -+P.g $.M y c c % 1 ( { @.s.p.t 7.W.;.m.h U O y /+d.",
"% p #+#+f.$.2._+X.++n n h.K }+|+*.1 2.^.z.2.$.2.3.^._+H =+@.C f.C ^.f.$.4.h.z '+F.H f.2.;+[ K.^ u.x ..= 1+H z.f.a ' a >.>.O  +1+",
"2+{ 6.4.U H.].i.] 0 S K.<+^ ( u.2+W.:.6.:.:.n.:.n.:.:...< W J.6 d , :.^.:.H.U 6.M.:.:.n.~ 2+|+T.3+]+_.4+: / a H.:.)+3.].~ U 5+o.",
"( < N.' -.-.~ ~ f # K.4+6+}+<+1 o F Z.-.-.n.; ; 4 -.~ 3 ]+++Z.6 W U -.~ @ -.n.~ n.~ n.-.; v 4+o.x w 0 # T.( T 5 ' ' +.' 8.7+~ -+",
"7.W.(.b } @ @ 4 8+(.t.9+h.1.(+% 4 ; [.b } %.+.' @ ~ 4 N M K n.- s y } +.y t + y m.+.O 4 ~ ~.(+k f.).`.y.z =+|.9 u $ } } ; U ' F ",
"L a (.X ) ~ ' ' =.h.z %+P } ).I m.4 a.0.+.+.} 4 l ' } + ~ P.I - W +.~ -.a t R -.4 ~ ' -.) ~ (.k h h I h [.).,.=+I I f h.3 d a.[.",
"~.g R m.n.:.; y +.H I !.5.h 0+Z B.y ; U +.n.y +.t t d.-+, 4.f ) y +.:.~ k [.@ y O O U 9 B.@.y I &.).) U O 4 - I @.h >+8.x 3 %+n.",
"4 t J W ; } U j ; ~ [.I I k [.0+} +.+.-.} ; +.z.m.9 B.=+  ].U 4 V O a+- R ~ U ].' b [.=+C ) ).g !.B.~ V ; n.=.z V I I K u.J.5.V ",
"n.' ; %.U O 4 y ~ =+t ' O t t H +.j ~ ; y @ ~ n.U > O [.U i.<.P.V ' y m.).n.:.' ' =+[.C ,.=+(.[.}.~ U +.n.y +.~ O E (.p.}+] a } ",
"n.:.O +.U O O +.' U U U y @ I , ' >.O ' n.V -.<.~ } +.P > 4.<.U - C P.P.~.' ; ~ +.@.z I I h [.t t $.<.U ; ' @ ; ; M H a u.5+* R ",
"~ U O ~ ; n.V O ~.P ' ' y b R ! a 4.~ ~ <.- ' W b.} t b+: w.~ y +.a.k m.~.4 U n.+.M z P I h h [.a a y ' ~ ; ~.y <.~ ~ l.~.w.=.~ ",
"U ~ ; O ~ U U y m.z ,.!.H [.H z [.) ~ ~ >.B.b.U L x.k c 4+c+$.V ~ , I z ~ 4 6.-.^.a z.s (+5.).h I (+l.O U 4 <.; ' ~ O C O 9.4.; ",
"O 6.~ ^.~ +.H.:.f.`  .d+5.%+j.|.}.$.4.$.H.i.6.6.4.4.t.o.2+2 C.6.U 4.>.>.:.4.].H.H.B.U ].G.e+= s.t.y $.U ~ ].V :.~ ~.f.^.) ~ ~ :.",
"& <.; <.W P.~ ~ 8.8.K u.1 ^ x C.}+5 a.@ <.n.i.].' 4.! f+ +]+| ; U P.: ~ n.; ; > @ ) ~.W.( [+K.V.g+@ ~ ~., n.O M m.h+<.V.f+f+X., ",
"; 4 @ > ' @ ' i+; @ 1 # T.: [ # _.A ' ; > ; ~ E ) a.& & , ) ) & O.5   Q.& & @ @ - 5 S.) a.) W.s @ & , & & a.y T ~ } @ 4 ; n.; n.",
"' ' @ 4 y 4 ~ n.@ ~ =+>+@+>+h.q (.g %.@ @ - @ $+> ).s b m.s Z.s @ X.3 #+E k s b Y.`.i `.W.b B k Z.#.s Z.b R z s 8+4 P y @ +.~ j ",
"+.O +.+.O -.} ; } @ ; m.f I R (.f > ; y n.y ' * w., a.m.`.s M - @ t r + k L k f m.`.I 0.D - - m.- -+R Z.b I z s 9.<.@ @ ~ ~ ; 4 ",
"y O ; P :.' <.~ ' <.+.U y m.B.-+9 ~.U H +.s [.| n.> ~., ' ) M H z ~.D r 8.W ~.@ - @ C [.R M ) m.m.m.y [.t z z 0.4.n.9.U %.; j ~ ",
"} +.y v.+.W y l.y +.' m.y > ) m.W ~.B.x.f z E 0 , t ~.~.@ } t + m.a B.L + D.z - ' ~.b @+s M ' m.0.[.~.M h h s Z.-.) -.4 >.U y ; ",
"+.4 j j ) B.a > V O 4 4 Q 4 :.(+B.L C d.=+=+| }+5+a !.8+P [., E 5 @ m.r R M ~.s.t :.s ~ B.; M ! m.J @ y [.M M #.n.a I 4 V y ; ~ ",
":.+.~ W a.t R s ' U ^.y j+) t m.' O ; ].B.Z Y   Q.a.7.W., [.~.s ~.) - ) ) ) , F f m.P.~.; b W ~.M a M ) - s b L > s P ' ; y 4 U ",
"~ :.y z B.t H L b ' >.~ ; a > (.! B.; ~ O L Y # =., 6.y C M ~.a + ! ! M M , h [.M k ) M b =+5 ~.z y M ~.f.` n ) <.' -.t 0.).t O ",
"U h r.^.p.M z [.a ~ l 4.2.U V y P.B.t >.U D }+..,+W 3.a M a H $.z C ' - ; W M ' 2.[.' ~.~ J g * ~.[.a >.~ n d+W.4.8+) $.L 9 6.V ",
"f.f.[.U H.2.J ] )+' ' H 6.b.H.v.:.:.H.H.:.'.3+2+^ H.>.^.^.f.^.f.G.:.x.b.~.G.s.6.2.6.' 2.6.$.H $.6.2.a 2.2.s.+ k+# C.C v.I.r.>.v.",
"6+u.*.]+;.e '.( : h+X.C.a+M A f+| R ; R J.c+d o t m.> P.^+R Q.W.@ a.v _ 7 V.= m.* -+5 5 ; m.6 x ]++ S.R.0.T B C.6+^ }+o * o.]+]+",
"# |+M.e ) ).= k y @ - } c.).~ 3 } l 4 ) @ u 7.A ) ) -.; y @ @ S.4 N y } @ +.a+) |.#+A ) } 0.} f+~ ) t l @ 4 - 9 7 ] T.Q.0+# C.: ",
";+m %+(+P l a+c.y ) +.{.Q M 9 ..-.j M - ) } t k j.- l - } k F `.i ' O +.M - N } 9 7.i j - I ).4 -.) ' {.g -+H [.p.u j E 4 %+}.D ",
"0+0+#+t L =.} i ; ; y %.).}.{ 5+k $.~ z.' y - s ; ) y ' @ ; b b > j } y y 4 l l.; O +.+.} P (+#.<.' +.Y (+9 + @ b ~ P j d.m.@+}.",
"H H H g H B., V O y @.t.f.=+[   H 2.L a ~.m.' ' j +.~ @ y ~ V 7.[.z.U y - @ >.} ~ y V } } ' l.O.4.; y 0+(.9 R =+V } ; ; ~ ' 9 [.",
"@.=+H C z a ) ~ +.|.!.b+>+V.4+] 5.,.h [.[.(.a z.y ~ y y ; ' 4 Q C a z b.M +.y O y O y } j j.%.O.<.O %.} a F t Q ' i U ; ; ' } (.",
"s I I I b t ' +.' @.z.t.>+^ ( = %+@+P b #+$ ! a +.' y a a ~.V /.+ [.g R a P.a O k y y +.y.!.z #.O - ; ; $.[.h y 4 +.j ' y z +.h.",
"Z A m.}.t n.+.%.O }.:+[.t.r *.D.1.$ ) +.4 ~.O %.y <.~ y -+:.<.Y.B.-+g 9 f !.R V O ; V V H H 8 0 :.F.G.z.m.t s a ~.j %.C ~ y V h.",
"l+b t $.~ } O +.~ U z }.1.q m+v :.^.l.V ~ y ; ~ - M <.V y t g.O g f m.u R 7.' %.%.^.' ~ ).% '+V.~.}.z M a ~.d.(.g ; l.r z t.O [.",
"O ^.' $.~ H.~.I 6.:.4.E |.z 0 C.i.l.U ~ B.>.r.~ H.g.,.^.^.&.%.^.q l+X.k I M H l.U ~ U @.v.x.y 1+:.(.h.}.g ) h.J 0+E C :.a ' P H ",
"V q.U 4.:.~ 2.z.@.H.i.2.x.E.1 m+!+].4.~ b.].].v.V O ].n+4.H.>.v.4.n+6.] G 3.D.U 4.2.4.2.].:., l+1 { % f.-+z.b.L J + x.U U H.G /.",
"X.+.> a.3 d ^ # { J.Q.g+> ) o.6 > i+; ! i+; > , @ <.> j > > 0 ]+; O.@ @ > ; a., ; ; > @ n.@ > ;.] _ L.= @ ; = _ Q.o+[ ) > < 3 L.",
"> `.h [.A  +| o ! > A Z.`.I t X.u 8.8.-+m.Z.`.t s s $+m.Z.9 ~.| > f ).&+m.R s Z.&+R s m.t s m.X.J.1.X.3 k b E B  +g ) 0.b k - o ",
"U M h `.b ~.A T v P `.5.} ~.Z s.z L q f M b 0.[.- h - &+s j.M & 4.m.z b ;.s s ~.0.s [.I M - , m.[.z -+A P.[.=.`.i s P &+I E H , ",
"; > O ~.@ m.[.M P M Z.- @ O >+(.q % R ^+I ~.M ; O , M t [.).a X.8+A.[.! k ' ) [.a 0.~.@ m.m.m.s b g (.D k 2.+.O B.) P h.B.Y h , ",
"n.4.~ h a M M P P - M h } :.i ^+X } y } ! ) y P., ; I p.' y.a 5+D.^+~.(+:.[.~.' , m.a P ' [.m.=+a.).#+g A g U P } P I g L z P ~+",
"n.' M ~.-+W ' ~.k - O f.@ 0.M 0+) @ - > f.@ ) -+k M , , @+I p 1 ! D.' [.#.m.m.~ M @.g f f.; ,.m.' a 1.-+J *+4.C ; P s.f L h =+P.",
"~ F a I ; y 7.O s /.- P $.3.M > h ) a L (.B.x.E.z.J W y s p+b o.W ' ; ~.B.M @ , g > $ $ [.t b =.y P >+r -+Z L ' ' m.A A + !.h 5+",
"=.~.s k a y ~ 2.j [.M @ ~., y ~.~ m.v B.E.(.E.+ v + P.f.~.=+M 5 4.> [.~.r 9 0.* r + M ~.~ ) ) R P t d.W.E + * a H W )+a ~.z M !+",
"=.!.p J [.} ~ A.~.$.M y M ^.y O ' a E _+` Y t.}./+g ~.U h b [.) 4.~.$.b.h.L $.J a A f.~ [.$.M (+M ^. +8.8.8.5 + p.f J k M 5.g a ",
"H.~ 2.d.g s.2.>.3.6.f.z.6.2.~ $.^.H.^.% ;+_+x T.A + (.x.2.C /.Y.<.^.f., B.b.2.s.t.g.2.H.s.3.3.s.c U G.p./+s.!._+*+J ] ! z.C 8.< ",
"| , U , # *+@ :.~.W D.^.=.4.:.f P.q+4.A C.}+|+|+x 6+c+M.( 3 U.e $+> 4., v o.3 [ n.U L.T.n.& N.S M.:.v C.{ [ M.: 3 # S , U K ]+[ "};
