/* XPM */
static char * brick4_xpm[] = {
"64 64 101 2",
"  	c #474848",
". 	c #6F6E6D",
"+ 	c #615E5C",
"@ 	c #767575",
"# 	c #737272",
"$ 	c #55514E",
"% 	c #4B433D",
"& 	c #423A34",
"* 	c #423E3B",
"= 	c #3F372F",
"- 	c #403730",
"; 	c #524E4B",
"> 	c #4B4B4B",
", 	c #444444",
"' 	c #4A4643",
") 	c #44413D",
"! 	c #5D5B5A",
"~ 	c #6B6A69",
"{ 	c #696665",
"] 	c #5C5956",
"^ 	c #4D4945",
"/ 	c #3E3732",
"( 	c #474748",
"_ 	c #545353",
": 	c #7D7C7B",
"< 	c #787777",
"[ 	c #656463",
"} 	c #6C6967",
"| 	c #72706F",
"1 	c #6B6867",
"2 	c #7F7E7D",
"3 	c #6D6B6A",
"4 	c #5A5653",
"5 	c #797878",
"6 	c #63605E",
"7 	c #6D6C6B",
"8 	c #848382",
"9 	c #7B7B7C",
"0 	c #706E6D",
"a 	c #747373",
"b 	c #3C3C3C",
"c 	c #74716F",
"d 	c #767778",
"e 	c #737474",
"f 	c #777879",
"g 	c #7E7F80",
"h 	c #6E6F70",
"i 	c #585758",
"j 	c #8A8887",
"k 	c #676768",
"l 	c #787877",
"m 	c #969798",
"n 	c #8F9092",
"o 	c #8B8C8D",
"p 	c #8F8D8C",
"q 	c #868788",
"r 	c #858586",
"s 	c #888788",
"t 	c #8A8B8B",
"u 	c #939394",
"v 	c #838384",
"w 	c #817E7D",
"x 	c #4F4F50",
"y 	c #716E6B",
"z 	c #615B56",
"A 	c #484748",
"B 	c #878889",
"C 	c #534B44",
"D 	c #5A534D",
"E 	c #83817F",
"F 	c #787573",
"G 	c #777472",
"H 	c #7F8081",
"I 	c #3F3F40",
"J 	c #575858",
"K 	c #575758",
"L 	c #4F5050",
"M 	c #373737",
"N 	c #676869",
"O 	c #888685",
"P 	c #706F70",
"Q 	c #373738",
"R 	c #6F7071",
"S 	c #908F8E",
"T 	c #5F5F60",
"U 	c #989797",
"V 	c #9A9B9C",
"W 	c #8E8F90",
"X 	c #3F4040",
"Y 	c #373838",
"Z 	c #807F80",
"` 	c #7C7B7A",
" .	c #3D3935",
"..	c #A2A2A2",
"+.	c #716B67",
"@.	c #69635E",
"#.	c #594F48",
"$.	c #594F47",
"%.	c #605F60",
"&.	c #686768",
"*.	c #5F6060",
"  . + @ # # $ % & & * & & & = - = = & ;   > , ' ) ; ! ~ # ~ { ] ! { . ^ & ) & = / ( _   ' * * _ ~ # ! ; * / / * ) / & ) ; { _ _ ",
". : < [ . } | 1 2 } 3 ! 4 5 5 5 2 @ ~ | ( ( + 4 ] ] + [ ; % ! # { 3 6 # ~ 7 + # . ~   8 { [ + [ ! 1 [ 7 # . [ { 1 ~ + { _ [ [ ( ",
"@ ] 5 9 # + 1 . 4 5 5 7 1 4 0 1 + ~ . 5 ( * 7 4 # 6 ] { + $ _ ! 3 [ [ ~ a . [ . # {   : 6 # ~ . ! 4 1 . + [ ] { ~ ~ [ [ 6 . [ b ",
"3 ] [ < + ! 2 # a 1 . . # ~ . . 1 ! ! 2 ( b | ~ ~ { ~ ] { + + [ . 1 4 4 1 . 0 @ 3 [   < @ ] ~ $ + $ { [ ~ [ [ 6 [ # # ! ! ~ { b ",
"3 1 + ] 6 6 7 [ . # 0 # @ 3 < [ @ 1 [ @ ( b # [ @ # . . ~ { ] ! 1 ~ { 1 $ @ + # ~ [   c 3 3 ! 7 + ! { + 1 ~ + ~ [ 6 . . . { # b ",
"3 | 1 [ [ [ ~ 5 d 3 5 d | 6 . @ e . { 5 ( b 0 [ ~ @ # ! [ + ! { _ + ~ + ~ . 1 . e !   0 ! # _ # ! ! [ 1 1 [ 3 @ @ 0 ! ! 4 . @ b ",
"6 @ . e | . @ ] a 2 @ . # + @ f @ d # g ( b 0 . h [ { ~ h . . $ { . . 3 ! 6 ] # 1 ! ( c ! [ h . ~ { . { 1 # [ { { ~ # # { $ g b ",
"1 3 0 # ~ 0 4 # ! @ 5 ~ ~ d @ 5 @ # # 5   b a @ [ . . # . { . ! # ! ! . ~ ! f # . ! ( a i 3 # + 3 . ~ # ~ ! { # { . . . [ ! . b ",
"| 0 . e # # 3 4 1 . . # 3 # d . @ 3 6 j > , 2 . . # { 3 . . ~ ! 1 ~ 1 [ { 4 # 6 @ k   l k h { . ~ [ # [ . @ { h 3 ~ # ~ ~ # < , ",
", m n o p j j q r j s j j j t p u u p u   > 5 v v g g w 2 9 2 2 2 2 2 g v v r v 8   _ i g v v r 5 v 8 2 2 v v 8 v 2 g v 8 8 ! x ",
"> ( , , , , , , ( > x > ( ( ( ( ( ( (   > >   ( ( ( ( ( ( ( > _ >   ( ( ( ( ( ( (   >   ( ( ( ( ( ( (   _ _ > ( ( (   ( ( (     ",
"m r t : c y + } z A _ 4 [ [ 2 5 q | j 8 j B 2 < : { + C ] D % > , z D D 4 4 | 8 8 y 6 2 v t E 1 ; D ] 4     z D D 0 F < p u u m ",
"5 5 { a 1 [ 1 7 . 1 ( 5 + . ~ + ! ! _ 4 . e # . [ 3 + . 3 3 ~ , ] a [ # { 1 + { a # d . 6 1 3 + { . # f > b w . # } 5 @ 1 6 _ 1 ",
"3 # 1 0 # 7 # a . ~ ( 8 1 { ~ [ [ [ ' [ + ; [ @ . h + 1 ~ . [ b 4 5 # # ~ . _ ! 4 . _ ] { 1 . 0 ~ d # . > b : ~ . 2 { 1 + [ . 0 ",
"{ < 1 a # 5 3 6 . + ( # + { + . + ~ { ^ [ ~ 1 # . . { [ # @ ! b 4 5 { @ . e 4 ~ ! $ 3 . 1 [ 1 0 . . # ~   b 8 d 5 1 1 1 [ [ $ # ",
". + ~ 1 2 @ G 5 1 { ( 2 ~ . ~ # { { { { ! ! [ # . @ # . # ~ . b ] 5 { # _ 6 e ~ { . 1 5 [ @ # [ _ 6 6 #   b l # . 3 5 5 @ . ~ + ",
"6 6 G 6 4 0 . a . { ( 9 k 7 ] 4 1 [ { ~ 6 ; ] $ ] 1 ! 7 # ~ k b 4 . { ! + 3 # ~ d [ $ ! # | 1 6 . @ 3 .   b 8 @ 1 | 5 5 a 1 [ ! ",
"# { [ 1 { 3 5 g # ~ ( 2 [ [ ~ . { + { # 1 ! [ ^ ! . { ~ 1 [ ! b + @ { { . { # . ] . @ [ 1 ! # 3 @ 1 . 9   b H ] ! { a 5 @ @ # ~ ",
"< + 0 G a # 7 9 d # ( 5 { ! 6 [ ~ { { 4 [ + # ! ] _ ~ ~ . # # I + @ @ . # # ~ @ ; 3 1 . ~ ! { # # 5 d 3   b @ 0 @ @ + 0 7 5 2 2 ",
": 0 y 2 # r } 1 j 9   j ! @ a . e + { @ 1 + @ { + ! { # 5 5 g ( [ 5 9 @ 9 5 . + G 2 @ + 5 @ # 5 @ 5 2 j > , j E 0 2 G 2 r 8 5 5 ",
"! J ! ! ! i i i !   _   ! ! ! ! K i i i i ! ! i K ! i , ! !   _ > ! ! ! ! ! _ ! ! ! ! J ! K ! i i K K L > _   K i ! K i K ! i i ",
"> , b b b b b b b b b b b b b b b b b , _ _   , , , , , , , , , , , , , , , , , ( > i   b b b b b b b b b b b M M M M M M b , _ ",
"A | . G 0 3 G 1 ~ 6 . 0 . 6 } + 0 4 @ 4 (   [ [ 4 + ! ! ] @ ~ . # [ . ~ ~ . 1 . 6 { > 8 ~ < < 6 5 : 1 7 | a [ [ { z { < v . + ( ",
"! k @ ~ 0 d < # 4 + [ { # 1 3 . . a ~ 5 ( , ! + [ . ~ [ N { { 3 [ { ! [ [ # [ . # 5 ( O . $ < @ + 1 a 1 6 0 2 5 @ 1 + 7 @ 7 2 b ",
"+ . # ~ [ 5 d @ + { [ ~ @ ~ a @ + 0 5 . ( , ~ i P [ ! [ ! ~ . 3 { e [ 6 1 3 e [ 4 8 ( u d 1 6 1 7 3 | # @ a 2 3 { 2 @ # 1 ~ 9 Q ",
"1 4 @ ~ ! 1 # # . # # ! { { 9 ~ 3 # . 0 ( , 3 { [ [ $ [ h ! 1 + # [ + . { [ { ! h 7 ( m d # < | @ 2 8 + @ d # 2 2 @ d # 2 + @ b ",
"4 + { 4 @ # 7 @ 5 3 ! ! ; R 7 # @ # 5 @ ( , 1 . ~ . ] + i _ { . { ! 6 + $ ] { # i 7 ( S 7 3 3 0 [ 7 . 8 # y 4 7 4 [ # 1 3 1 { b ",
"4 5 [ ) ! # 0 @ # f # ] ! _ a @ @ . # 9   , 5 [ [ ! ~ [ T ! + ; { ~ [ { { # [ [ ! 3 ( 8 3 G 5 3 5 e # a [ + 4 0 + 5 3 5 @ 8 ~ b ",
"] 6 ~ ~ ~ [ ! 7 # ~ . # h 3 6 ] 4 1 1 g > , [ ~ ~ { { 4 { [ 4 ! ~ . . . [ ! 4 > ! 1 ( t 0 # 3 5 @ 5 + 1 @ 1 0 a ~ @ @ 3 5 2 ~ b ",
"4 @ # { ! ] ~ ; 5 5 . # # . 1 + 3 # 6 ] _ , | { 1 [ # { ! + { 6 ! . { . [ { 3 # ! } ( U 2 | [ 9 d + 1 . 5 6 @ # a # 2 8 2 5 @ b ",
"> s 8 a g @ { 8 1 2 @ 5 1 2 0 r 8 2 v j (   8 [ @ 9 9 9 . 0 [ # 5 ! # . @ 7 5 @ 9 [ > V j p t q s j B j j j j r r q q t j W t   ",
"  X b b b b b b b X , , b b b b b b b , x _ ( , , , , , , , ( ( ( , , , , , , , , > _ ( b b Y b b b b b b b b M M M M M M b , > ",
"& & & & & & * [ { , _   e e . ~ . ! ! 4 * * * ' [ 4 . R # + > _   [ . @ e . 6 > $ $ ; 6 [ ; > ; * & & * > > ) % ' _ ) % % ^ * & ",
"< G [ 8 a e d d 1 5   j . @ 1 _ + 1 ! [ ~ # # 4 { # ~ ~ | 1 . ( # @ # @ + ~ 5 ~ 6 ] [ h 7 7 1 1 # @ # 5   b u Z 0 2 2 5 5 5 2 # ",
"5 5 @ [ # 4 [ ~ @ < ( w ^ 6 ! { ~ 3 # @ h { # h 3 . # 1 @ # 8 b # 5 R 3 [ @ [ 4 [ [ ~ { . [ @ . 7 5 ~ 1 > b v . ` 0 w g 2 < 2 } ",
"` 0 2 1 # H . H 2 5 ( j # + + ~ 6 h k k ! # [ . ~ 1 1 ! ! ] 1 b ~ 7 _ ; [ 7 ~ [ 1 @ . # # e 6 . @ ! f ~ _ Y . 1 G a ] 4 ! a 2 @ ",
"@ @ @ 5 a @ | 3 5 . ( < 0 ~ . . ~ ! . # ~ N 3 [ # 6 [ # + . 7 b i . 1 ~ [ 3 . . ~ [ { . . @ ~ @ . # . ! _  .2 6 } ] : | + 6 7 2 ",
"G | 5 5 . 5 ~ { @ [ ( | 3 + 4 ! 1 . ~ # [ @ { # 6 ~ { 1 [ + | b . + @ + 3 7 1 0 # ~ ~ h f f # . [ 4 ; d > M w } + 2 a + + { 1 + ",
"+ 2 2 g 5 . # } l ~ ( | { . ~ 1 { # . ~ ~ { [ . [ { + [ 6 6 1 b [ # + # + # + . ~ . @ + ! [ ; . 0 0 ~ 0 ( M ` 1 G 1 5 @ ! 3 [ 3 ",
"; . 2 < 5 2 9 @ 5 . ( 5 ~ . . . # # @ R . ! [ $ 1 { ; 1 [ # ~ b 7 1 + ! @ @ 5 # # $ . ! ~ ] 4 ! 1 + { 8   b l 1 l 2 @ # . 5 0 { ",
"@ 6 ! 2 g 8 # 5 w . ( < ~ 3 # 3 [ d # . { 1 # a # . 6 [ R { f , [ ] 1 # + # # 3 ] ~ . @ . 1 ! + ] # @ # > b 8 ~ 2 l < a [ 0 ` 2 ",
"t u V O m V V m m   _ ! j 8 v v v v } 1 [ a l ` r j q r 8 r . > ( r r r B B p t r v B t j j j q 2 r r v     8 u u m W p u m u p ",
"> ( ( ( ( ( ( ( ( > > >         ( (     L _   ( ( ( ( ( ( ( (     ( , , , , , ( ( > _ >   ( ( ( ( ( (   > >   ( ( ( ( ( ( (   > ",
"A ] + a 2 2 < 8 r 3 + 0 | [ l 7 v 2 8 r     ..F p +.@.z z w @.D D D z D #.$.z D 6 , _ . 2 # z 4 z 0 + 3 1 7 7 + 3 [ 6 5 { + ] > ",
"+ 6 ] . ; 6 [ 4 [ . R 6 { @ h . ~ ~ ] # 4 b : 8 1 a 0 G 5 { + l 5 8 . @ # @ v 2 # a ( l # 1 | . @ ] [ ! # # 1 d 3 6 6 $ # 5 5 , ",
"! . { { . ~ ! [ ! 4 3 h 3 . e ~ + { { [ 4 b ! 6 a 6 G 7 # < 2 . @ d . 2 5 2 2 8 8 @ ( w ~ 3 d # . # # { # # @ 0 . 7 { ! 4 1 5 b ",
"] { . k { ! [ 4 ! 4 { [ + ! ! $ ] ~ ~ 5 ! b G 0 a < [ v 0 0 0 < @ a 9 0 6 2 ~ 8 # < ( E @ @ R 3 + # ~ # # i 3 a 1 # @ . . # 2 b ",
"[ { [ . 3 1 ] . ! { ! ' _ 6 + [ [ + ; 1 i b r a | 2 . ! # @ 8 g 2 f 1 a # # [ 4 8 2 ( < 1 ! ~ 7 ! # ~ { ~ . [ @ # [ ~ @ . 6 2 b ",
". @ # k [ 1 [ [ 1 ! ! ! ! ] # [ ! + [ # i Y j 7 # @ G 1 5 5 2 9 @ 1 | @ 5 } 5 ! @ 8 ( 2 ~ ^ + + . [ { 0 @ ~ [ 4 [ + 4 ^ ; 1 9 b ",
"k @ P 1 1 # . . ~ ! + # # # [ 4 [ 4 ~ ~ ! Y ` 5 l + # 1 [ ~ { 4 ; # 2 2 @ 5 1 [ k r , 0 [ ~ [ 0 # . # k R { ~ ! + 6 [ _ $ > [ b ",
"! 1 # { _ h . @ . . ! 6 { 1 ! 3 ! 1 { k i b r @ a 5 3 7 [ 3 1 5 # 5 5 2 5 5 @ # # n ( G { # 6 ~ 4 ~ | . 4 ~ [ 1 6 6 # @ ! 4 ! I ",
"[ 6 ! @ 1 . @ @ . @ # @ d # d { 1 # { 3 > , 8 G l 5 v j 5 5 v ` 8 r v 0 . 0 2 g @ S   r 3 @ # a 3 @ # @ [ 0 @ 5 0 # @ # 2 ~ @ ( ",
"> ! ! _ ! ! ! ! i i i i i K ! ! J i ! _ > _   ! i i i i i i i K K K 4 i K K ! ! ! ( i   ! K ! ! J K ! ! > A ! ! i i i i i !   _ ",
", b b b b b b b , > i   b b b b b b b b b b b b Q M M M M b ( _ > , b b b b b b b I , b b b b b b b b , _ _ ( b b b b b b b b , ",
"3 ' 4 + # < # # 5 ^ > @.3 z ] [ { 3 v 5 5 } D # + 6 4 6 4 z ] ( ; c 7 ~ + . a ] 1 # 3 < [ 2 + 4 + + ! 3 ( ( | a 2 $ 3 ] ] # ! 6 ",
"3 1 [ [ ! [ @ # 0 [ ( F + 5 | ~ @ 0 [ # 3 [ < 5 @ # . 5 5 5 { b [ . . 5 # . # ! + . @ # # a 3 . { R ] { > , 2 # + [ + @ 1 . . + ",
"@ # # [ . T [ # # [ ( j [ 6 @ 3 3 { $ 7 7 # 5 # 5 6 H # 2 . # b { 3 { # # + # # h 3 [ d @ 3 0 5 [ . . # > I @ . 0 [ 3 # 3 5 ~ ! ",
"3 ~ + ! _ 4 _ 4 3 { ( c 0 3 + 1 a ! + %.[ 7 1 . 0 5 2 g 5 2 2 b { | { # [ [ ! ! . 3 . . 1 3 1 7 @ @ [ { > I 4 . ~ @ d ~ &.. R ! ",
"[ { [ ~ 4 [ 1 [ # @ ( E [ 0 3 1 + . ~ + 0 . 2 5 2 2 @ 5 @ 5 # b 1 # d 4 0 0 # . R { ] _ 3 { 1 . 5 5 d f _ b 4 [ ] # # # # # . ~ ",
"@ . ~ ~ ~ ] [ ] . . ( y 5 @ 1 @ h 1 @ 1 ; # 9 5 ~ ] [ 5 D ! 2 b + ~ 4 ! 3 f # [ ' ! ; $ $ # f @ h . . { > b 7 ; { [ { @ . # ! # ",
"# ; [ 3 { ~ [ . [ # ( l 5 # 5 @ @ . . ~ ! $ [ 5 1 . . 0 G 0 ~ b 6 1 6 ! 1 3 + $ [ [ ! ; ] ~ # d . # d < > b 0 ! 1 . ; ; . { ] # ",
"# 4 . + [ 1 0 # . ~ ( c D + 5 5 # 5 5 [ @ ~ [ . @ # @ @ 8 @ 5 b 1 3 @ . + ~ [ . [ ~ ! # 7 ~ + { | # . + > , # a ! 1 ! _ $ 4 @ # ",
"8 9 5 5 g 5 v < r *.> w t 8 v q B g H B r v 5 2 5 E q j q t n   _ t r 9 8 8 2 9 8 8 8 g v g f ] 2 8 v o (   r g 9 v H ~ ~ 5 6 8 ",
", b b b b b b b ,   L ( b b b b b b b b b b b b b b b b b b ( _ > , b b b b b b b , , , b b b b b b b ( _ _ ( X b b b b b b , ( "};
