/* XPM */
static char * door_xpm[] = {
"64 64 49 1",
" 	c #5F3A27",
".	c #5E3926",
"+	c #5D3926",
"@	c #5D3826",
"#	c #744730",
"$	c #72462F",
"%	c #865337",
"&	c #895538",
"*	c #71452F",
"=	c #855236",
"-	c #73462F",
";	c #70442E",
">	c #72452F",
",	c #603A27",
"'	c #885437",
")	c #744A34",
"!	c #754B35",
"~	c #77CEE3",
"{	c #99D9EA",
"]	c #99DAEB",
"^	c #9AE0F3",
"/	c #9BD9EA",
"(	c #76CDE2",
"_	c #9CDAEA",
":	c #75CDE2",
"<	c #734A34",
"[	c #73CCE2",
"}	c #9DDAEA",
"|	c #98D8E9",
"1	c #74CDE2",
"2	c #97D8E9",
"3	c #9AD9EA",
"4	c #73CDE2",
"5	c #72CCE2",
"6	c #78CEE3",
"7	c #845136",
"8	c #875337",
"9	c #754830",
"0	c #482D1E",
"a	c #452B1D",
"b	c #845236",
"c	c #835136",
"d	c #492D1E",
"e	c #9ADAEB",
"f	c #77CFE4",
"g	c #78CFE4",
"h	c #9BE1F5",
"i	c #9DE8FE",
"j	c #875437",
"                                                                ",
"  ..............+++++++++++++@   .............++++++++++++++++  ",
" .#############$%%%%%%%%%%%%%&    ###########*%%%%%%%%%%%%%%%=  ",
" .##$$$$$$$$$$$*%%%%%%%%%%%%%&    #-$$$$$$$$$;%%%%%%%%%%%%%%%=  ",
" .#$%%%%%%%%%%%%%%%%%%%%%%%%%&    ##%%%%%%%%%%%%%%%%%%%%%%%%%=  ",
" .#$%%%%%%%%%%%%%%%%%%%%%%%%%&    >$%%%%%%%%%%%%%%%%%%%%%%%%%=  ",
" .#$%%%%%%%%%%%%%%%%%%%%%%%%%&   ,%%%%%%%%%%%%%%%%%%%%%%%%%%%=  ",
" .*;%%%=''''''''''''''''''''%&   ,%%''''''''''''''''''''%%%%%=  ",
" +%%%%%'###################-%&   ,%=###################>%%%%%=  ",
" +%%%%%'##))!!!!!!!!!!!!!!#-%&   ,%=##!!!!!!!!!!!!!!!!#>%%%%%=  ",
" +%%%%%'#)~~{{{{{{{{{{{{{]#-%&   ,%=##{{{{{{{{{{{{{{{^#>%%%%%=  ",
" +%%%%%'#)~~{{{{{{{{{{{{{]#-%&   ,%=##{{{{{{{{{{{{{{{^#>%%%%%=  ",
" +%%%%%'#)~~{{{{{{{{{{{{{]#-%&   ,%=##{{{{{{{{{{{{{{{^#>%%%%%=  ",
" +%%%%%'#)~~{{{{{{{{{{{{{]#-%&   ,%=##{{{{{{{{{{{{{{{^#>%%%%%=  ",
" +%%%%%'#)~~{{{{{{{{{{{{{]#-%&   ,%=##{{{{{{{{{{{{{{{^#>%%%=#-  ",
" +%%%%%'#)~~//{{{{{{{{{{{]#-%&   ,%=##{{{{{{{{{{{{{{{^#>%%%=#-  ",
" +%%%%%'#)~~~({{{{{{{{{{{]#-%&   ,%=##{{{{{{{{{{{{{{{^#>%%%=#-  ",
" +%%%%%'#)~~~({{{{{{{{{{{]#-%&   ,%=##__{{{{{{{{{{{{{^#>%%%=#-  ",
" +%%%%%'#)~~~({{{{{{{{{{{]#-%&   ,%=##~:{{{{{{{{{{{{{^#>%%%=#-  ",
" +%%%%%'#<[[~(_}{{{{{{{{{]#-%&   ,%=##~:{{{{{{{{{{{{{^#>%%%=#-  ",
" +%%%%%'#!{|~~~1{{{{{{{{{]#-%&   ,%=##~:{{{{{{{{{{{{{^#>%%%=#-  ",
" +%%%%%'#!{|~~~1{{{{{{{{{]#-%&   ,%=##~(2222{{{{{{{{{^#>%%%=#-  ",
" +%%%%%'#!{|~~~1{{{{{{{{{]#-%&   ,%=##~~~~~[{{{{{{{{{^#>%%%=#-  ",
" +%%%%%'#!{|~~~1||{{{{{{{]#-%&   ,%=##~~~~~[{{{{{{{{{^#>%%%=#-  ",
" +%%%%%'#!{|~~~~~[{{{{{{{]#-%&   ,%=##{3~~~[{{{{{{{{{^#>%%%=#-  ",
" +%%%%%'#!{|((~~~[{{{{{{{]#-%&   ,%=##{3~~~[{{{{{{{{{^#>%%%=#-  ",
" +%%%%%'#!{{{{~~~~~[{{{{{]#-%&   ,%=##{3~~~[{{{{{{{{{^#>%%%=#-  ",
" +%%%%%'#!{{{{~~~~~[{{{{{]#-%&   ,%=##{3~~~[33{{{{{{{^#>%%%=-$  ",
" +%%%%%'#!{{{{~~~~~[{{{{{]#-%&   ,%=##{3~~~~~[{{{{{{{^#>%%%%%=  ",
" +%%%%%'#!{{{{11~~~[{{{{{]#-%&   ,%=##{314~~~[{{{{{{{^#>%%%%%=  ",
" +%%%%%'#!{{{{{/~~~[{{{{{]#-%&   ,%=##{{{/~~~[{{{{{{{^#>%%%%%=  ",
" +%%%%%'#!{{{{{/[5~5__{{{]#-%&   ,%=##{{{/[5~[{{{{{{{^#>%%%%%=  ",
" +%%%%%'#!{{{{{{{_~~~6{{{]#-%&   ,%=##{{{{{_~[{{{{{{{^#>%%%%%=  ",
" +%%%%%'#!{{{{{{{_~~~6{{{]#-78.. ,%=##{{{{{_~[22{{{{{^#>%%%%%=  ",
" +%%%%%'#!{{{{{{{_~~~6{{{]#9000a ,%=##{{{{{_~~~6{{{{{^#>%%%%%=  ",
" +%%%%%'#!{{{{{{{_~~~6||{]#9000a. bc##{{{{{_~~~6{{{{{^#>%%%%%=  ",
" +%%%%%'#!{{{{{{{{{_~~~~{]#90000000d##{{{{{_~~~6{{{{{^#>%%%%%=  ",
" +%%%%%'#!{{{{{{{{{_~~~~{]#90000000d##{{{{{_~~~~||{{{^#>%%%%%=  ",
" +%%%%%'#!{{{{{{{{{_~~~~{]#-%&   ,%=##{{{{{{{_~~~~{{{^#>%%%%%=  ",
" +%%%%%'#!{{{{{{{{{_~~~~3e#-%&   ,%=##{{{{{{{_~~~~{{{^#>%%%%%=  ",
" +%%%%%'#!{{{{{{{{{_~~~~~f#-%&   ,%=##{{{{{{{_~~~~{{{^#>%%%%%=  ",
" +%%%%%'#!{{{{{{{{{}11~~~f#-%&   ,%=##{{{{{{{_~~~~{{{^#>%%%%%=  ",
" +%%%%%'#!{{{{{{{{{{{2~~~f#-%&   ,%=##{{{{{{{_~~~~{{{^#>%%%%%=  ",
" +%%%%%'#!{{{{{{{{{{{2[[~f#-%&   ,%=##{{{{{{{}[[~~{{{^#>%%%%%=  ",
" +%%%%%'#!{{{{{{{{{{{{{|~f#-%&   ,%=##{{{{{{{{{|~~{{{^#>%%%%%=  ",
" +%%%%%'#!{{{{{{{{{{{{{|~f#-%&   ,%=##{{{{{{{{{|~~{{{^#>%%%%%=  ",
" +%%%%%'#!{{{{{{{{{{{{{|~f#-%&   ,%=##{{{{{{{{{|~~{{{^#>%%%%%=  ",
" +%%%%%'#!{{{{{{{{{{{{{|6g#-%&   ,%=##{{{{{{{{{|66{{{^#>%%%%%=  ",
" +%%%%%'#!{{{{{{{{{{{{{{{]#-%&   ,%=##{{{{{{{{{{{{{{{^#>%%%%%=  ",
" +%%%%%'#!{{{{{{{{{{{{{{{]#-%&   ,%=##{{{{{{{{{{{{{{{^#>%%%%%=  ",
" +%%%%%'#!{{{{{{{{{{{{{{{]#-%&   ,%=##{{{{{{{{{{{{{{{^#>%%%%%=  ",
" +%%%%%'#!{{{{{{{{{{{{{{{]#-%&   ,%=##{{{{{{{{{{{{{{{^#>%%%%%=  ",
" +%%%%%'#!{{{{{{{{{{{{{{{]#-%&   ,%=##{{{{{{{{{{{{{{{^#>%%%%%=  ",
" +%8%%%'#!^^^^^^^^^^^^^^^h#-%&   ,%=##^^^^^^^^^^^^^^^i#>%%%%%=  ",
" .#$%%%'###################-%&   ,%=###################>%%%%%=  ",
" .#$%%%'>>>>>>>>>>>>>>>>>>>*%&   ,j8>>>>>>>>>>>>>>>>>>>;%%%%%=  ",
" .#$%%%%%%%%%%%%%%%%%%%%%%%%%&    ##%%%%%%%%%%%%%%%%%%%%%%%%%=  ",
" .#$%%%%%%%%%%%%%%%%%%%%%%%%%&    ##%%%%%%%%%%%%%%%%%%%%%%%%%=  ",
" .#$%%%%%%%%%%%%%%%%%%%%%%%%%&    ##%%%%%%%%%%%%%%%%%%%%%%%%%=  ",
" .#$==%%%%%%%%%%%%%%%%%%%%%%%&    ##==%%%%%%%%%%%%%%%%%%%%%%%=  ",
" .###>%%%%%%%%%%%%%%%%%%%%%%%&    ####%%%%%%%%%%%%%%%%%%%%%%%=  ",
" .---*======================='    ----=======================7  ",
"                                                                ",
"                                                                "};
